<?xml version="1.0" encoding="utf-8"?>
<!-- Generator: Adobe Illustrator 16.0.0, SVG Export Plug-In . SVG Version: 6.00 Build 0)  -->
<!DOCTYPE svg PUBLIC "-//W3C//DTD SVG 1.1//EN" "http://www.w3.org/Graphics/SVG/1.1/DTD/svg11.dtd">
<svg version="1.1" id="Layer_1" xmlns="http://www.w3.org/2000/svg" xmlns:xlink="http://www.w3.org/1999/xlink" x="0px" y="0px"
	 width="248px" height="92px" viewBox="0 0 248 92" enable-background="new 0 0 248 92" xml:space="preserve">
<linearGradient id="SVGID_1_" gradientUnits="userSpaceOnUse" x1="17.4888" y1="54.9434" x2="51.5648" y2="54.9434">
	<stop  offset="0" style="stop-color:#00719B"/>
	<stop  offset="1" style="stop-color:#00ADEE"/>
</linearGradient>
<path fill-rule="evenodd" clip-rule="evenodd" fill="url(#SVGID_1_)" d="M17.301,46.113c0,23.568,19.104,42.672,42.671,42.672
	s42.671-19.104,42.671-42.672 M59.972,71.125c-13.813,0-25.011-11.199-25.011-25.012c0-13.813,11.198-25.011,25.011-25.011
	c13.814,0,25.011,11.198,25.011,25.011C84.983,59.926,73.787,71.125,59.972,71.125z"/>
<path fill-rule="evenodd" clip-rule="evenodd" fill="#007AFF" d="M34.962,46.113c0,13.813,11.197,25.012,25.012,25.012
	c13.813,0,25.01-11.199,25.01-25.012c0-0.227-0.028-0.445-0.033-0.67h0.033V12.272c0-4.877,3.954-8.831,8.831-8.831
	c4.876,0,8.83,3.953,8.83,8.831v33.841l0,0c-0.001,23.568-19.104,42.67-42.671,42.67s-42.671-19.102-42.671-42.67H34.962z"/>
<path fill-rule="evenodd" clip-rule="evenodd" fill="#ABD3FF" d="M89.819,51.777c0.037-0.57,0.062-1.145,0.062-1.723l0,0l0,0l0,0
	c0-14.671-11.894-26.564-26.564-26.564c-0.577,0-1.147,0.024-1.714,0.061c-0.153,0.01-0.305,0.022-0.458,0.034
	c-0.466,0.038-0.928,0.087-1.387,0.15c-0.106,0.014-0.213,0.024-0.318,0.04c-0.56,0.082-1.114,0.182-1.661,0.298
	c-0.097,0.02-0.191,0.044-0.286,0.065c-0.463,0.105-0.921,0.22-1.374,0.348c-0.07,0.02-0.144,0.033-0.214,0.054v0.007
	c-2.341,0.679-4.55,1.668-6.577,2.926v-0.003c-0.055,0.034-0.106,0.072-0.16,0.106c-0.361,0.227-0.715,0.464-1.065,0.708
	c-0.106,0.076-0.212,0.15-0.317,0.226c-0.341,0.247-0.676,0.5-1.004,0.762c-0.073,0.058-0.147,0.115-0.22,0.172
	c-0.402,0.328-0.796,0.667-1.179,1.017c-0.034,0.03-0.065,0.063-0.098,0.094c-0.338,0.313-0.667,0.633-0.988,0.964
	c-0.092,0.095-0.183,0.191-0.275,0.289c-0.271,0.285-0.534,0.577-0.792,0.875c-0.083,0.095-0.167,0.188-0.247,0.285
	c-0.654,0.778-1.265,1.593-1.827,2.442c-0.074,0.11-0.144,0.224-0.216,0.336c-0.207,0.322-0.406,0.649-0.599,0.98
	c-0.074,0.128-0.148,0.255-0.22,0.385c-0.21,0.374-0.411,0.754-0.603,1.141c-0.036,0.072-0.075,0.142-0.109,0.213
	c-0.223,0.458-0.431,0.926-0.628,1.397c-0.048,0.115-0.091,0.232-0.137,0.348c-0.145,0.363-0.283,0.729-0.412,1.099
	c-0.053,0.152-0.105,0.306-0.156,0.459c-0.121,0.369-0.233,0.742-0.338,1.117c-0.036,0.128-0.074,0.253-0.108,0.382
	c-0.132,0.499-0.25,1.003-0.354,1.512c-0.019,0.093-0.032,0.187-0.05,0.28c-0.08,0.42-0.151,0.842-0.21,1.27
	c-0.023,0.166-0.043,0.334-0.063,0.502c-0.045,0.375-0.083,0.755-0.112,1.137c-0.013,0.161-0.028,0.32-0.037,0.484
	c-0.032,0.531-0.053,1.066-0.053,1.605l0,0l0,0l0,0c0,0.51,0.019,1.016,0.046,1.519c0.014,0.249,0.037,0.492,0.057,0.737
	c0.019,0.223,0.037,0.445,0.061,0.666c0.037,0.355,0.083,0.705,0.134,1.057c0.007,0.047,0.015,0.094,0.022,0.143
	c2.306,15.236,17.188,25.217,32.133,21.779c0.274-0.061,0.548-0.121,0.818-0.193c0.147-0.037,0.294-0.082,0.44-0.123
	c0.364-0.102,0.726-0.209,1.083-0.326c0.064-0.02,0.126-0.037,0.19-0.057c0.408-0.049,0.837-0.092,1.295-0.121
	c2.649-0.172,9.845,5.174,13.02,4.627c0.796-3.764-3.466-10.027-1.386-13.658c0.97-1.695,2.111-2.941,3.085-5.396
	c0.253-0.637,0.475-1.299,0.678-1.975c0.023-0.066,0.039-0.133,0.061-0.197c0.158-0.471,0.305-0.947,0.437-1.428
	c0.02-0.072,0.042-0.143,0.061-0.217c0.149-0.559,0.278-1.123,0.391-1.695c0.004-0.023,0.011-0.045,0.016-0.068
	c0.065-0.252,0.131-0.502,0.198-0.754c0.008-0.18,0.013-0.361,0.019-0.539c0.009-0.061,0.011-0.121,0.019-0.18
	c0.065-0.48,0.117-0.965,0.156-1.453C89.798,52.06,89.81,51.919,89.819,51.777z"/>
<path fill-rule="evenodd" clip-rule="evenodd" fill="#FFFFFF" d="M84.926,47.734c0.035-0.537,0.058-1.076,0.058-1.621l0,0l0,0l0,0
	c0-13.813-11.197-25.011-25.01-25.011c-0.543,0-1.08,0.023-1.614,0.057c-0.145,0.009-0.288,0.022-0.432,0.032
	c-0.438,0.037-0.874,0.083-1.305,0.141c-0.1,0.014-0.201,0.024-0.3,0.039c-0.527,0.077-1.048,0.17-1.564,0.28
	c-0.091,0.02-0.179,0.042-0.27,0.063c-0.436,0.097-0.866,0.206-1.292,0.326c-0.066,0.019-0.135,0.031-0.201,0.051v0.006
	c-2.205,0.64-4.284,1.571-6.192,2.755v-0.003c-0.051,0.032-0.1,0.068-0.151,0.1c-0.34,0.214-0.674,0.436-1.002,0.667
	c-0.101,0.07-0.2,0.141-0.299,0.211c-0.321,0.232-0.636,0.471-0.945,0.718c-0.068,0.055-0.138,0.108-0.207,0.162
	c-0.379,0.31-0.75,0.628-1.11,0.957c-0.032,0.029-0.062,0.06-0.093,0.089c-0.318,0.294-0.627,0.597-0.929,0.907
	c-0.087,0.089-0.173,0.181-0.259,0.271c-0.255,0.27-0.503,0.544-0.747,0.825c-0.078,0.09-0.156,0.179-0.232,0.27
	c-0.616,0.732-1.19,1.499-1.72,2.298c-0.069,0.104-0.136,0.211-0.203,0.317c-0.195,0.303-0.383,0.611-0.565,0.924
	c-0.07,0.12-0.14,0.239-0.207,0.36c-0.198,0.353-0.387,0.711-0.568,1.075c-0.034,0.066-0.07,0.133-0.103,0.201
	c-0.209,0.432-0.406,0.871-0.591,1.315c-0.045,0.108-0.086,0.218-0.129,0.327c-0.137,0.342-0.266,0.686-0.388,1.035
	c-0.05,0.142-0.099,0.287-0.146,0.432c-0.114,0.347-0.22,0.698-0.319,1.052c-0.034,0.121-0.07,0.238-0.102,0.359
	c-0.124,0.47-0.236,0.944-0.333,1.423c-0.018,0.088-0.031,0.178-0.047,0.264c-0.075,0.396-0.142,0.793-0.199,1.196
	c-0.022,0.156-0.041,0.314-0.06,0.472c-0.043,0.355-0.078,0.711-0.106,1.071c-0.012,0.15-0.025,0.303-0.035,0.455
	c-0.03,0.5-0.049,1.004-0.049,1.512l0,0l0,0l0,0c0,0.481,0.017,0.957,0.043,1.43c0.012,0.234,0.034,0.463,0.053,0.695
	c0.017,0.209,0.034,0.418,0.057,0.627c0.035,0.334,0.079,0.664,0.126,0.994c0.007,0.045,0.014,0.089,0.021,0.134
	C37.433,64.34,51.446,73.736,65.517,70.5c0.257-0.059,0.515-0.115,0.771-0.182c0.139-0.037,0.276-0.078,0.415-0.117
	c0.342-0.096,0.683-0.197,1.02-0.307c0.06-0.018,0.119-0.033,0.179-0.055c0.384-0.045,0.787-0.084,1.219-0.111
	c2.495-0.162,9.271,4.869,12.259,4.355c0.75-3.545-3.263-9.441-1.305-12.859c0.915-1.598,1.988-2.77,2.905-5.082
	c0.238-0.6,0.447-1.221,0.639-1.859c0.021-0.061,0.036-0.125,0.057-0.186c0.149-0.443,0.287-0.89,0.412-1.344
	c0.018-0.068,0.04-0.136,0.058-0.204c0.14-0.524,0.262-1.058,0.368-1.597c0.003-0.021,0.01-0.042,0.015-0.063
	c0.061-0.237,0.123-0.475,0.186-0.712c0.009-0.17,0.013-0.339,0.019-0.508c0.008-0.056,0.011-0.112,0.018-0.169
	c0.062-0.452,0.11-0.907,0.147-1.367C84.906,48.002,84.917,47.867,84.926,47.734z"/>
<path fill-rule="evenodd" clip-rule="evenodd" fill="#E6E7E8" d="M81.378,74.078c-2.997,0.516-9.789-4.529-12.29-4.367
	c-0.432,0.029-0.837,0.068-1.222,0.113c-7.336,2.449-14.643,1.611-21.249-2.531c7.982,2.529,14.214,3.609,20.861,0.922
	c3.096-1.25,4.562-2.551,7.388-0.396C77.524,69.848,78.72,72.051,81.378,74.078L81.378,74.078z"/>
<g>
	<path fill="#007AFF" d="M111.913,68.083c2.282-0.171,4.278-0.799,5.476-2.11c1.369-1.598,1.882-3.765,1.882-10.381v-23.1h5.02
		v25.04c0,5.361-0.855,8.841-3.309,11.351c-2.225,2.224-5.875,3.137-8.555,3.137L111.913,68.083z M124.86,24.734
		c0.057,1.654-1.141,3.08-3.137,3.08c-1.883,0-3.08-1.426-3.08-3.08c0-1.768,1.312-3.137,3.193-3.137
		C123.662,21.598,124.86,22.966,124.86,24.734z"/>
	<path fill="#007AFF" d="M156.687,58.843c-1.824,0.913-5.475,1.825-10.152,1.825c-10.837,0-18.993-6.845-18.993-19.449
		c0-12.035,8.156-20.192,20.077-20.192c4.791,0,7.814,1.027,9.126,1.711l-1.199,4.05c-1.881-0.913-4.562-1.597-7.756-1.597
		c-9.012,0-15.001,5.761-15.001,15.856c0,9.411,5.419,15.457,14.772,15.457c3.023,0,6.104-0.627,8.1-1.597L156.687,58.843z"/>
	<path fill="#007AFF" d="M159.884,19.601h5.018v17.225h0.115c0.799-1.426,2.053-2.681,3.594-3.536
		c1.482-0.855,3.25-1.426,5.133-1.426c3.707,0,9.639,2.281,9.639,11.807v16.427h-5.02V44.241c0-4.449-1.654-8.213-6.387-8.213
		c-3.252,0-5.818,2.281-6.73,5.019c-0.285,0.685-0.344,1.426-0.344,2.396v16.655h-5.018V19.601z"/>
	<path fill="#007AFF" d="M203.976,60.098l-0.4-3.479h-0.172c-1.539,2.168-4.506,4.106-8.441,4.106c-5.588,0-8.441-3.936-8.441-7.928
		c0-6.674,5.932-10.324,16.598-10.267v-0.57c0-2.281-0.627-6.389-6.273-6.389c-2.566,0-5.248,0.799-7.186,2.054l-1.143-3.309
		c2.283-1.482,5.59-2.452,9.07-2.452c8.441,0,10.494,5.761,10.494,11.293v10.324c0,2.396,0.115,4.734,0.457,6.616H203.976z
		 M203.234,46.01c-5.477-0.114-11.693,0.855-11.693,6.217c0,3.251,2.168,4.791,4.734,4.791c3.594,0,5.875-2.281,6.674-4.62
		c0.17-0.513,0.285-1.084,0.285-1.597V46.01z"/>
	<path fill="#007AFF" d="M219.148,24.563v7.928h7.188v3.822h-7.188V51.2c0,3.422,0.971,5.361,3.766,5.361
		c1.311,0,2.281-0.171,2.908-0.343l0.229,3.765c-0.971,0.399-2.51,0.685-4.449,0.685c-2.338,0-4.221-0.741-5.418-2.11
		c-1.428-1.483-1.939-3.936-1.939-7.187V36.313h-4.279v-3.822h4.279v-6.617L219.148,24.563z"/>
</g>
</svg>
